<svg width="21" height="21" viewBox="0 0 21 21" fill="none" xmlns="http://www.w3.org/2000/svg">
<path d="M14.6562 3.115V1.75C14.6562 1.39125 14.3587 1.09375 14 1.09375C13.6412 1.09375 13.3437 1.39125 13.3437 1.75V3.0625H7.65621V1.75C7.65621 1.39125 7.35871 1.09375 6.99996 1.09375C6.64121 1.09375 6.34371 1.39125 6.34371 1.75V3.115C3.98121 3.33375 2.83496 4.7425 2.65996 6.83375C2.64246 7.0875 2.85246 7.2975 3.09746 7.2975H17.9025C18.1562 7.2975 18.3662 7.07875 18.34 6.83375C18.165 4.7425 17.0187 3.33375 14.6562 3.115Z" fill="#0C1E33"/>
<path d="M17.5 8.61H3.5C3.01875 8.61 2.625 9.00375 2.625 9.485V14.875C2.625 17.5 3.9375 19.25 7 19.25H14C17.0625 19.25 18.375 17.5 18.375 14.875V9.485C18.375 9.00375 17.9812 8.61 17.5 8.61ZM8.05875 15.9337C7.97125 16.0125 7.875 16.0738 7.77 16.1175C7.665 16.1613 7.55125 16.1875 7.4375 16.1875C7.32375 16.1875 7.21 16.1613 7.105 16.1175C7 16.0738 6.90375 16.0125 6.81625 15.9337C6.65875 15.7675 6.5625 15.54 6.5625 15.3125C6.5625 15.085 6.65875 14.8575 6.81625 14.6913C6.90375 14.6125 7 14.5512 7.105 14.5075C7.315 14.42 7.56 14.42 7.77 14.5075C7.875 14.5512 7.97125 14.6125 8.05875 14.6913C8.21625 14.8575 8.3125 15.085 8.3125 15.3125C8.3125 15.54 8.21625 15.7675 8.05875 15.9337ZM8.2425 12.5825C8.19875 12.6875 8.1375 12.7838 8.05875 12.8713C7.97125 12.95 7.875 13.0113 7.77 13.055C7.665 13.0988 7.55125 13.125 7.4375 13.125C7.32375 13.125 7.21 13.0988 7.105 13.055C7 13.0113 6.90375 12.95 6.81625 12.8713C6.7375 12.7838 6.67625 12.6875 6.6325 12.5825C6.58875 12.4775 6.5625 12.3638 6.5625 12.25C6.5625 12.1363 6.58875 12.0225 6.6325 11.9175C6.67625 11.8125 6.7375 11.7163 6.81625 11.6288C6.90375 11.55 7 11.4888 7.105 11.445C7.315 11.3575 7.56 11.3575 7.77 11.445C7.875 11.4888 7.97125 11.55 8.05875 11.6288C8.1375 11.7163 8.19875 11.8125 8.2425 11.9175C8.28625 12.0225 8.3125 12.1363 8.3125 12.25C8.3125 12.3638 8.28625 12.4775 8.2425 12.5825ZM11.1213 12.8713C11.0337 12.95 10.9375 13.0113 10.8325 13.055C10.7275 13.0988 10.6137 13.125 10.5 13.125C10.3863 13.125 10.2725 13.0988 10.1675 13.055C10.0625 13.0113 9.96625 12.95 9.87875 12.8713C9.72125 12.705 9.625 12.4775 9.625 12.25C9.625 12.0225 9.72125 11.795 9.87875 11.6288C9.96625 11.55 10.0625 11.4888 10.1675 11.445C10.3775 11.3488 10.6225 11.3488 10.8325 11.445C10.9375 11.4888 11.0337 11.55 11.1213 11.6288C11.2788 11.795 11.375 12.0225 11.375 12.25C11.375 12.4775 11.2788 12.705 11.1213 12.8713Z" fill="#0C1E33"/>
</svg>
