<svg width="17" height="16" viewBox="0 0 17 16" fill="none" xmlns="http://www.w3.org/2000/svg">
<g clip-path="url(#clip0_2235_1127)">
<path d="M12.875 8.77099C12.1405 8.77099 11.4505 8.46099 10.8255 7.95349L10.9765 7.23749L10.9815 7.20899C11.1195 6.44849 11.5465 5.16999 12.8745 5.16999C13.3524 5.17012 13.8106 5.36002 14.1486 5.69793C14.4865 6.03584 14.6764 6.49411 14.6765 6.97199C14.6757 7.44944 14.4855 7.90706 14.1477 8.24444C13.8098 8.58181 13.3519 8.77136 12.8745 8.77149L12.875 8.77099ZM12.875 3.34649C11.1825 3.34649 9.867 4.44549 9.3335 6.25549C8.521 5.03399 7.901 3.56549 7.542 2.32849H5.719V7.07049C5.71808 7.52054 5.53888 7.9519 5.22065 8.27014C4.90241 8.58837 4.47105 8.76757 4.021 8.76849C3.57107 8.76717 3.13994 8.58785 2.82179 8.2697C2.50364 7.95155 2.32432 7.52042 2.323 7.07049V2.32849H0.5V7.07049C0.5 9.01299 2.0805 10.6045 4.021 10.6045C5.9635 10.6045 7.542 9.01349 7.542 7.07049V6.27599C7.896 7.01299 8.331 7.76299 8.8595 8.42449L7.7425 13.672H9.607L10.417 9.86449C11.1255 10.3175 11.9405 10.604 12.8755 10.604C14.8755 10.604 16.5005 8.96849 16.5005 6.97099C16.5005 4.97099 14.8755 3.34599 12.8755 3.34599L12.875 3.34649Z" fill="#E0E0E0"/>
</g>
<defs>
<clipPath id="clip0_2235_1127">
<rect width="16" height="16" fill="white" transform="translate(0.5)"/>
</clipPath>
</defs>
</svg>
