<svg width="85" height="99" viewBox="0 0 85 99" fill="none" xmlns="http://www.w3.org/2000/svg">
<path d="M32.5799 9.00952H46.603C48.3853 9.00979 50.0946 9.72282 51.3551 10.9919L81.0315 40.877C82.2916 42.1464 82.9997 43.8677 83 45.6626V86.8642C83 89.5574 81.9375 92.1404 80.0464 94.0448C78.1553 95.9492 75.5904 97.0191 72.916 97.0191H29.2186C26.5441 97.0191 23.9792 95.9492 22.0881 94.0448C20.197 92.1404 19.1346 89.5574 19.1346 86.8642V59.7843" stroke="#506AF4" stroke-width="3" stroke-linecap="round" stroke-linejoin="round"/>
<path d="M49.5096 10.5669V35.7769C49.5096 37.5599 50.2179 39.2698 51.4786 40.5306C52.7394 41.7913 54.4493 42.4996 56.2323 42.4996H81.4423" stroke="#506AF4" stroke-width="3" stroke-linecap="round" stroke-linejoin="round"/>
<path d="M22.25 12.1708V44.3784C22.2588 45.0487 22.1338 45.7139 21.8825 46.3349C21.6312 46.9559 21.2587 47.52 20.7868 47.994C20.315 48.468 19.7534 48.8422 19.1352 49.0947C18.517 49.3471 17.8547 49.4726 17.1875 49.4638C14.6562 49.4638 12.125 47.5356 12.125 44.3784V13.8659C12.125 7.38417 15.6202 2 22.25 2C28.8798 2 32.375 7.25492 32.375 13.7346V43.1346C32.375 52.2459 26.5067 59.6346 17.1875 59.6346C7.86828 59.6346 2 52.2481 2 43.1346V25.7319" stroke="#506AF4" stroke-width="3" stroke-miterlimit="10" stroke-linecap="round"/>
</svg>
