<svg width="22" height="22" viewBox="0 0 22 22" fill="none" xmlns="http://www.w3.org/2000/svg">
<path d="M11 20.1666C9.73199 20.1666 8.54032 19.9259 7.42504 19.4443C6.30976 18.9628 5.33963 18.3098 4.51463 17.4854C3.68963 16.661 3.03665 15.6909 2.55571 14.575C2.07476 13.4591 1.83399 12.2674 1.83338 11C1.83276 9.73253 2.07354 8.54087 2.55571 7.42498C3.03788 6.30909 3.69085 5.33895 4.51463 4.51456C5.3384 3.69017 6.30854 3.0372 7.42504 2.55565C8.54154 2.07409 9.73321 1.83331 11 1.83331C12.2669 1.83331 13.4585 2.07409 14.575 2.55565C15.6915 3.0372 16.6617 3.69017 17.4855 4.51456C18.3092 5.33895 18.9625 6.30909 19.4453 7.42498C19.9281 8.54087 20.1685 9.73253 20.1667 11V12.3291C20.1667 13.2305 19.8575 13.9984 19.239 14.6327C18.6206 15.2671 17.8604 15.5839 16.9584 15.5833C16.4237 15.5833 15.9195 15.4687 15.4459 15.2396C14.9723 15.0104 14.575 14.6819 14.2542 14.2541C13.8112 14.6972 13.3107 15.0296 12.7527 15.2515C12.1948 15.4733 11.6105 15.5839 11 15.5833C9.73199 15.5833 8.65124 15.1363 7.75779 14.2422C6.86435 13.3482 6.41732 12.2674 6.41671 11C6.4161 9.73253 6.86313 8.65179 7.75779 7.75773C8.65246 6.86367 9.73321 6.41665 11 6.41665C12.2669 6.41665 13.3479 6.86367 14.2432 7.75773C15.1385 8.65179 15.5852 9.73253 15.5834 11V12.3291C15.5834 12.7264 15.7132 13.0625 15.973 13.3375C16.2327 13.6125 16.5612 13.75 16.9584 13.75C17.3556 13.75 17.6841 13.6125 17.9438 13.3375C18.2035 13.0625 18.3334 12.7264 18.3334 12.3291V11C18.3334 8.95276 17.623 7.21873 16.2021 5.7979C14.7813 4.37706 13.0473 3.66665 11 3.66665C8.95282 3.66665 7.21879 4.37706 5.79796 5.7979C4.37713 7.21873 3.66671 8.95276 3.66671 11C3.66671 13.0472 4.37713 14.7812 5.79796 16.2021C7.21879 17.6229 8.95282 18.3333 11 18.3333H15.5834V20.1666H11ZM11 13.75C11.7639 13.75 12.4132 13.4826 12.948 12.9479C13.4827 12.4132 13.75 11.7639 13.75 11C13.75 10.2361 13.4827 9.58678 12.948 9.05206C12.4132 8.51734 11.7639 8.24998 11 8.24998C10.2362 8.24998 9.58685 8.51734 9.05213 9.05206C8.5174 9.58678 8.25004 10.2361 8.25004 11C8.25004 11.7639 8.5174 12.4132 9.05213 12.9479C9.58685 13.4826 10.2362 13.75 11 13.75Z" fill="#E0E0E0"/>
</svg>
