<svg width="38" height="38" viewBox="0 0 38 38" fill="none" xmlns="http://www.w3.org/2000/svg">
<path d="M20.3986 9.61652H10.5009C10.0988 9.61652 9.71217 9.63198 9.341 9.67838C5.18085 10.0341 3.09305 12.493 3.09305 17.0244V23.2105C3.09305 29.3965 5.56749 30.6183 10.5009 30.6183H11.1195C11.4597 30.6183 11.9082 30.8503 12.1093 31.1132L13.9651 33.5876C14.7848 34.6857 16.1148 34.6857 16.9344 33.5876L18.7903 31.1132C19.0222 30.8039 19.3934 30.6183 19.78 30.6183H20.3986C24.93 30.6183 27.3889 28.546 27.7446 24.3703C27.791 23.9992 27.8065 23.6126 27.8065 23.2105V17.0244C27.8065 12.091 25.3321 9.61652 20.3986 9.61652ZM10.0524 21.9887C9.18635 21.9887 8.50588 21.2928 8.50588 20.4422C8.50588 19.5916 9.20181 18.8957 10.0524 18.8957C10.903 18.8957 11.5989 19.5916 11.5989 20.4422C11.5989 21.2928 10.903 21.9887 10.0524 21.9887ZM15.4498 21.9887C14.5837 21.9887 13.9032 21.2928 13.9032 20.4422C13.9032 19.5916 14.5992 18.8957 15.4498 18.8957C16.3004 18.8957 16.9963 19.5916 16.9963 20.4422C16.9963 21.2928 16.3158 21.9887 15.4498 21.9887ZM20.8626 21.9887C19.9965 21.9887 19.3161 21.2928 19.3161 20.4422C19.3161 19.5916 20.012 18.8957 20.8626 18.8957C21.7132 18.8957 22.4091 19.5916 22.4091 20.4422C22.4091 21.2928 21.7132 21.9887 20.8626 21.9887Z" fill="#0C1E33"/>
<path d="M33.9926 10.8383V17.0244C33.9926 20.1174 33.0337 22.2207 31.116 23.3806C30.6521 23.6589 30.1108 23.2878 30.1108 22.7465L30.1263 17.0244C30.1263 10.8383 26.5847 7.29673 20.3986 7.29673L10.9803 7.31219C10.439 7.31219 10.0679 6.77091 10.3462 6.30695C11.5061 4.38926 13.6094 3.43042 16.687 3.43042H26.5847C31.5181 3.43042 33.9926 5.90486 33.9926 10.8383Z" fill="#0C1E33"/>
</svg>
