<svg width="37" height="38" viewBox="0 0 37 38" fill="none" xmlns="http://www.w3.org/2000/svg">
<g clip-path="url(#clip0_2066_1329)">
<path d="M29.8093 22.5483L28.268 19.9897C27.9443 19.4194 27.6515 18.3405 27.6515 17.7086V13.809C27.6515 10.1869 25.5244 7.05796 22.4572 5.5937C21.6557 4.17568 20.176 3.29712 18.4805 3.29712C16.8005 3.29712 15.29 4.2065 14.4885 5.63994C11.4829 7.13503 9.40211 10.2331 9.40211 13.809V17.7086C9.40211 18.3405 9.10925 19.4194 8.78558 19.9743L7.22883 22.5483C6.6123 23.581 6.47358 24.7216 6.85891 25.7697C7.22883 26.8024 8.10739 27.6039 9.24797 27.9892C12.2382 29.0065 15.3825 29.4997 18.5268 29.4997C21.6711 29.4997 24.8154 29.0065 27.8056 28.0046C28.8845 27.6501 29.7168 26.8332 30.1176 25.7697C30.5183 24.7062 30.4104 23.5348 29.8093 22.5483Z" fill="#0C1E33"/>
<path d="M22.8579 31.0564C22.2106 32.8444 20.4997 34.1237 18.4959 34.1237C17.2783 34.1237 16.0761 33.6305 15.2283 32.7519C14.7351 32.2895 14.3652 31.673 14.1494 31.041C14.3498 31.0718 14.5501 31.0873 14.7659 31.1181C15.1204 31.1643 15.4904 31.2106 15.8603 31.2414C16.7388 31.3185 17.6328 31.3647 18.5268 31.3647C19.4053 31.3647 20.2839 31.3185 21.147 31.2414C21.4707 31.2106 21.7944 31.1951 22.1027 31.1489C22.3493 31.1181 22.5959 31.0873 22.8579 31.0564Z" fill="#0C1E33"/>
</g>
<defs>
<clipPath id="clip0_2066_1329">
<rect width="36.9919" height="36.9919" fill="white" transform="translate(0 0.214417)"/>
</clipPath>
</defs>
</svg>
