<svg width="25" height="24" viewBox="0 0 25 24" fill="none" xmlns="http://www.w3.org/2000/svg">
<path d="M12.501 20C14.6227 20 16.6575 19.1571 18.1578 17.6569C19.6581 16.1566 20.501 14.1217 20.501 12C20.501 9.87827 19.6581 7.84344 18.1578 6.34315C16.6575 4.84285 14.6227 4 12.501 4C10.3792 4 8.34441 4.84285 6.84412 6.34315C5.34383 7.84344 4.50098 9.87827 4.50098 12C4.50098 14.1217 5.34383 16.1566 6.84412 17.6569C8.34441 19.1571 10.3792 20 12.501 20ZM12.501 22C6.97798 22 2.50098 17.523 2.50098 12C2.50098 6.477 6.97798 2 12.501 2C18.024 2 22.501 6.477 22.501 12C22.501 17.523 18.024 22 12.501 22ZM9.39098 13.17L6.89298 12.391C6.35298 12.226 6.34998 11.854 7.01398 11.587L16.747 7.827C17.311 7.597 17.633 7.888 17.45 8.617L15.792 16.437C15.676 16.994 15.341 17.127 14.876 16.87L12.325 14.982L11.136 16.13C11.014 16.248 10.915 16.349 10.727 16.374C10.54 16.4 10.386 16.344 10.273 16.034L9.40298 13.163L9.39098 13.17Z" fill="#E0E0E0"/>
</svg>
