<?xml version="1.0" standalone="no"?>
<!DOCTYPE svg PUBLIC "-//W3C//DTD SVG 20010904//EN" "http://www.w3.org/TR/2001/REC-SVG-20010904/DTD/svg10.dtd">
<svg version="1.0" xmlns="http://www.w3.org/2000/svg"
    width="256.000000pt" height="256.000000pt" viewBox="0 0 256.000000 256.000000"
    preserveAspectRatio="xMidYMid meet">

    <g transform="translate(0.000000,256.000000) scale(0.100000,-0.100000)"
        fill="#fff" stroke="none">
        <path
            d="M1185 2388 c-312 -379 -495 -863 -499 -1315 -1 -143 4 -160 68 -207
27 -20 40 -21 513 -24 472 -2 487 -2 527 18 76 37 81 53 80 230 -2 443 -184
915 -499 1298 -47 57 -83 92 -95 92 -12 0 -48 -35 -95 -92z m169 -440 c55 -16
138 -99 154 -154 28 -94 8 -169 -63 -239 -101 -102 -229 -102 -330 0 -102 101
-102 229 0 330 70 71 145 90 239 63z" />
        <path
            d="M559 1475 l-117 -94 -6 -53 c-3 -29 -13 -144 -22 -256 -21 -253 -26
-243 103 -217 l88 18 1 136 c0 75 6 177 13 226 12 89 53 283 66 318 4 9 3 17
-1 17 -5 0 -61 -43 -125 -95z" />
        <path
            d="M1873 1556 c10 -27 56 -242 68 -321 7 -44 12 -142 13 -218 l1 -138
35 -9 c19 -5 59 -14 89 -21 88 -18 86 -25 62 262 -12 134 -21 249 -21 256 0
11 -232 203 -246 203 -3 0 -4 -6 -1 -14z" />
        <path
            d="M800 767 c0 -19 41 -140 53 -155 7 -9 97 -12 411 -10 l401 3 42 80
c23 44 42 83 43 88 0 4 -214 7 -475 7 -384 0 -475 -2 -475 -13z" />
        <path d="M920 440 l0 -120 40 0 40 0 0 120 0 120 -40 0 -40 0 0 -120z" />
        <path d="M1240 320 l0 -240 40 0 40 0 0 240 0 240 -40 0 -40 0 0 -240z" />
        <path d="M1520 440 l0 -120 40 0 40 0 0 120 0 120 -40 0 -40 0 0 -120z" />
    </g>
</svg>