<svg width="29" height="29" viewBox="0 0 29 29" fill="none" xmlns="http://www.w3.org/2000/svg">
<path d="M6.19267 6.04166C5.1912 6.04166 4.23075 6.4395 3.5226 7.14764C2.81446 7.85579 2.41663 8.81624 2.41663 9.81771V19.1823C2.41663 20.1838 2.81446 21.1442 3.5226 21.8524C4.23075 22.5605 5.1912 22.9583 6.19267 22.9583H15.5573C16.5587 22.9583 17.5192 22.5605 18.2273 21.8524C18.9355 21.1442 19.3333 20.1838 19.3333 19.1823V18.5171L23.5063 21.3984C24.8089 22.2974 26.5851 21.3651 26.5851 19.7822V9.21716C26.5851 7.63425 24.8089 6.70202 23.5063 7.60102L19.3333 10.4829V9.81771C19.3333 8.81624 18.9355 7.85579 18.2273 7.14764C17.5192 6.4395 16.5587 6.04166 15.5573 6.04166H6.19267ZM19.3333 12.3177L24.3642 8.84379C24.4322 8.79683 24.5118 8.76938 24.5943 8.76442C24.6769 8.75945 24.7592 8.77715 24.8324 8.81561C24.9055 8.85407 24.9668 8.91181 25.0095 8.9826C25.0522 9.05338 25.0748 9.13449 25.0747 9.21716V19.7822C25.0747 19.8648 25.052 19.9459 25.0093 20.0166C24.9665 20.0873 24.9052 20.1449 24.8321 20.1833C24.7589 20.2217 24.6767 20.2394 24.5942 20.2344C24.5117 20.2294 24.4322 20.2019 24.3642 20.155L19.3333 16.681V12.3177ZM3.92704 9.81771C3.92704 9.21682 4.16574 8.64055 4.59063 8.21567C5.01552 7.79078 5.59179 7.55208 6.19267 7.55208H15.5573C16.1581 7.55208 16.7344 7.79078 17.1593 8.21567C17.5842 8.64055 17.8229 9.21682 17.8229 9.81771V19.1823C17.8229 19.7832 17.5842 20.3594 17.1593 20.7843C16.7344 21.2092 16.1581 21.4479 15.5573 21.4479H6.19267C5.59179 21.4479 5.01552 21.2092 4.59063 20.7843C4.16574 20.3594 3.92704 19.7832 3.92704 19.1823V9.81771Z" fill="#0C1E33"/>
</svg>
