<svg width="24" height="24" viewBox="0 0 24 24" fill="none" xmlns="http://www.w3.org/2000/svg">
<path d="M14.35 2H9.65001C8.61001 2 7.76001 2.84 7.76001 3.88V4.82C7.76001 5.86 8.60001 6.7 9.64001 6.7H14.35C15.39 6.7 16.23 5.86 16.23 4.82V3.88C16.24 2.84 15.39 2 14.35 2Z" fill="#0C1E33"/>
<path d="M17.24 4.82C17.24 6.41 15.94 7.71 14.35 7.71H9.65001C8.06001 7.71 6.76001 6.41 6.76001 4.82C6.76001 4.26 6.16001 3.91 5.66001 4.17C4.25001 4.92 3.29001 6.40999 3.29001 8.11999V17.53C3.29001 19.99 5.30001 22 7.76001 22H16.24C18.7 22 20.71 19.99 20.71 17.53V8.11999C20.71 6.40999 19.75 4.92 18.34 4.17C17.84 3.91 17.24 4.26 17.24 4.82ZM12.38 16.95H8.00001C7.59001 16.95 7.25001 16.61 7.25001 16.2C7.25001 15.79 7.59001 15.45 8.00001 15.45H12.38C12.79 15.45 13.13 15.79 13.13 16.2C13.13 16.61 12.79 16.95 12.38 16.95ZM15 12.95H8.00001C7.59001 12.95 7.25001 12.61 7.25001 12.2C7.25001 11.79 7.59001 11.45 8.00001 11.45H15C15.41 11.45 15.75 11.79 15.75 12.2C15.75 12.61 15.41 12.95 15 12.95Z" fill="#0C1E33"/>
</svg>
