<svg width="18" height="18" viewBox="0 0 18 18" fill="none" xmlns="http://www.w3.org/2000/svg">
<path d="M11.1742 1.91663H4.79923C4.42351 1.91663 4.06318 2.06588 3.7975 2.33156C3.53182 2.59723 3.38257 2.95757 3.38257 3.33329V14.6666C3.38257 15.0424 3.53182 15.4027 3.7975 15.6684C4.06318 15.934 4.42351 16.0833 4.79923 16.0833H13.2992C13.675 16.0833 14.0353 15.934 14.301 15.6684C14.5666 15.4027 14.7159 15.0424 14.7159 14.6666V5.45829L11.1742 1.91663Z" stroke="#F2994A" stroke-width="1.5" stroke-linecap="round" stroke-linejoin="round"/>
<path d="M10.4658 1.91663V4.74996C10.4658 5.12568 10.6151 5.48602 10.8808 5.75169C11.1464 6.01737 11.5068 6.16663 11.8825 6.16663H14.7158" stroke="#F2994A" stroke-width="1.5" stroke-linecap="round" stroke-linejoin="round"/>
<path d="M8.69515 12.5417C9.67315 12.5417 10.466 11.7488 10.466 10.7708C10.466 9.79283 9.67315 9 8.69515 9C7.71715 9 6.92432 9.79283 6.92432 10.7708C6.92432 11.7488 7.71715 12.5417 8.69515 12.5417Z" stroke="#F2994A" stroke-width="1.5" stroke-linecap="round" stroke-linejoin="round"/>
<path d="M9.96997 12.0458L11.1741 13.2499" stroke="#F2994A" stroke-width="1.5" stroke-linecap="round" stroke-linejoin="round"/>
</svg>
