<svg width="26" height="26" viewBox="0 0 26 26" fill="none" xmlns="http://www.w3.org/2000/svg">
<path d="M13.7342 21.6201C14.0318 21.6894 14.0591 22.0792 13.7692 22.1758L12.0575 22.7392C7.75667 24.1258 5.4925 22.9667 4.095 18.6658L2.70834 14.3867C1.32167 10.0858 2.47 7.81084 6.77084 6.42417L7.42317 6.20814C7.82603 6.07473 8.21674 6.47829 8.10002 6.88631C8.02983 7.13169 7.96279 7.38931 7.8975 7.65917L6.83584 12.1983C5.64417 17.3008 7.38834 20.1175 12.4908 21.3308L13.7342 21.6201Z" fill="white"/>
<path d="M18.6009 3.47749L16.7917 3.05499C13.1734 2.19916 11.0175 2.90332 9.75003 5.52499C9.42503 6.18582 9.16503 6.98749 8.94837 7.90832L7.8867 12.4475C6.82503 16.9758 8.22253 19.2075 12.74 20.28L14.56 20.7133C15.1884 20.865 15.7734 20.9625 16.315 21.0058C19.695 21.3308 21.4934 19.7492 22.4034 15.8383L23.465 11.31C24.5267 6.78165 23.14 4.53916 18.6009 3.47749ZM16.5642 14.4408C16.4667 14.8092 16.1417 15.0475 15.7734 15.0475C15.7084 15.0475 15.6434 15.0367 15.5675 15.0258L12.415 14.2242C11.9817 14.1158 11.7217 13.6717 11.83 13.2383C11.9384 12.805 12.3825 12.545 12.8159 12.6533L15.9684 13.455C16.4125 13.5633 16.6725 14.0075 16.5642 14.4408ZM19.7384 10.7792C19.6409 11.1475 19.3159 11.3858 18.9475 11.3858C18.8825 11.3858 18.8175 11.375 18.7417 11.3642L13.4875 10.0317C13.0542 9.92332 12.7942 9.47916 12.9025 9.04582C13.0109 8.61249 13.455 8.35249 13.8884 8.46082L19.1425 9.79332C19.5867 9.89082 19.8467 10.335 19.7384 10.7792Z" fill="white"/>
</svg>
