<svg width="24" height="24" viewBox="0 0 24 24" fill="none" xmlns="http://www.w3.org/2000/svg">
<path d="M12.6777 19.957C12.9524 20.021 12.9776 20.3808 12.71 20.47V20.47L11.13 20.99C7.15997 22.27 5.06997 21.2 3.77997 17.23L2.49997 13.28C1.21998 9.31 2.27997 7.21 6.24997 5.93L6.77397 5.75647C7.17684 5.62305 7.5689 6.02711 7.45451 6.43578C7.3978 6.63836 7.34326 6.84976 7.28997 7.07L6.30997 11.26C5.20997 15.97 6.81997 18.57 11.53 19.69L12.6777 19.957Z" fill="#0C1E33"/>
<path d="M17.1701 3.20999L15.5001 2.81999C12.1601 2.02999 10.1701 2.67999 9.00006 5.09999C8.70006 5.70999 8.46006 6.44999 8.26006 7.29999L7.28006 11.49C6.30006 15.67 7.59006 17.73 11.7601 18.72L13.4401 19.12C14.0201 19.26 14.5601 19.35 15.0601 19.39C18.1801 19.69 19.8401 18.23 20.6801 14.62L21.6601 10.44C22.6401 6.25999 21.3601 4.18999 17.1701 3.20999ZM15.2901 13.33C15.2001 13.67 14.9001 13.89 14.5601 13.89C14.5001 13.89 14.4401 13.88 14.3701 13.87L11.4601 13.13C11.0601 13.03 10.8201 12.62 10.9201 12.22C11.0201 11.82 11.4301 11.58 11.8301 11.68L14.7401 12.42C15.1501 12.52 15.3901 12.93 15.2901 13.33ZM18.2201 9.94999C18.1301 10.29 17.8301 10.51 17.4901 10.51C17.4301 10.51 17.3701 10.5 17.3001 10.49L12.4501 9.25999C12.0501 9.15999 11.8101 8.74999 11.9101 8.34999C12.0101 7.94999 12.4201 7.70999 12.8201 7.80999L17.6701 9.03999C18.0801 9.12999 18.3201 9.53999 18.2201 9.94999Z" fill="#0C1E33"/>
</svg>
